<svg xmlns="http://www.w3.org/2000/svg" width="940" height="340" font-family="'Helvetica Neue',Helvetica,Arial,sans-serif">
<rect width="940" height="340" fill="white"/>
<text x="470" y="30" text-anchor="middle" font-size="18" font-weight="700" fill="#1a1a1a">Keyword scan time — 64 KB input, single thread, Apple M1 Max</text>
<text x="470" y="49" text-anchor="middle" font-size="12.5" fill="#777">lower is better · log scale · all three find the same 7,900 matches</text>
<line x1="250.0" y1="70" x2="250.0" y2="286" stroke="#ececec"/>
<text x="250.0" y="304" text-anchor="middle" font-size="10.5" fill="#999">0.01</text>
<line x1="340.0" y1="70" x2="340.0" y2="286" stroke="#ececec"/>
<text x="340.0" y="304" text-anchor="middle" font-size="10.5" fill="#999">0.1</text>
<line x1="430.0" y1="70" x2="430.0" y2="286" stroke="#ececec"/>
<text x="430.0" y="304" text-anchor="middle" font-size="10.5" fill="#999">1</text>
<line x1="520.0" y1="70" x2="520.0" y2="286" stroke="#ececec"/>
<text x="520.0" y="304" text-anchor="middle" font-size="10.5" fill="#999">10</text>
<line x1="610.0" y1="70" x2="610.0" y2="286" stroke="#ececec"/>
<text x="610.0" y="304" text-anchor="middle" font-size="10.5" fill="#999">100</text>
<line x1="700.0" y1="70" x2="700.0" y2="286" stroke="#ececec"/>
<text x="700.0" y="304" text-anchor="middle" font-size="10.5" fill="#999">1000</text>
<line x1="790.0" y1="70" x2="790.0" y2="286" stroke="#ececec"/>
<text x="790.0" y="304" text-anchor="middle" font-size="10.5" fill="#999">10000</text>
<text x="520.0" y="324" text-anchor="middle" font-size="11.5" fill="#666">milliseconds (log scale)</text>
<rect x="250.0" y="81.88" width="38.677705200216735" height="30.240000000000002" rx="3" fill="#159a56"/>
<text x="236" y="96.0" text-anchor="end" font-size="13" font-weight="600" fill="#222">FastAhoCorasick — ILP ×8</text>
<text x="236" y="111.0" text-anchor="end" font-size="10.5" fill="#999">Julia · this package</text>
<text x="296.67770520021674" y="101.0" font-size="12" font-weight="600" fill="#333">0.027 ms</text>
<text x="296.67770520021674" y="115.0" font-size="10" fill="#aaa">baseline</text>
<rect x="250.0" y="135.88" width="106.62222877358391" height="30.240000000000002" rx="3" fill="#8fd0ac"/>
<text x="236" y="150.0" text-anchor="end" font-size="13" font-weight="600" fill="#222">FastAhoCorasick — serial</text>
<text x="236" y="165.0" text-anchor="end" font-size="10.5" fill="#999">Julia · this package</text>
<text x="364.6222287735839" y="155.0" font-size="12" font-weight="600" fill="#333">0.153 ms</text>
<text x="364.6222287735839" y="169.0" font-size="10" fill="#aaa">5.7× slower</text>
<rect x="250.0" y="189.88" width="121.92160985592557" height="30.240000000000002" rx="3" fill="#c46a3f"/>
<text x="236" y="204.0" text-anchor="end" font-size="13" font-weight="600" fill="#222">Rust  aho-corasick 1.1</text>
<text x="236" y="219.0" text-anchor="end" font-size="10.5" fill="#999">Rust crate</text>
<text x="379.92160985592557" y="209.0" font-size="12" font-weight="600" fill="#333">0.226 ms</text>
<text x="379.92160985592557" y="223.0" font-size="10" fill="#aaa">8.4× slower</text>
<rect x="250.0" y="243.88" width="480.8180412739987" height="30.240000000000002" rx="3" fill="#9aa0a6"/>
<text x="236" y="258.0" text-anchor="end" font-size="13" font-weight="600" fill="#222">AhoCorasick.jl 0.1.1</text>
<text x="236" y="273.0" text-anchor="end" font-size="10.5" fill="#999">Julia · registry (O(n²))</text>
<text x="738.8180412739987" y="263.0" font-size="12" font-weight="600" fill="#333">2200 ms</text>
<text x="738.8180412739987" y="277.0" font-size="10" fill="#aaa">81784.0× slower</text>
</svg>
