<svg xmlns="http://www.w3.org/2000/svg" width="940" height="360" font-family="Helvetica,Arial,sans-serif">
<rect width="940" height="360" fill="white"/>
<text x="470" y="26" text-anchor="middle" font-size="17" font-weight="bold">FastAhoCorasick.jl vs Rust aho-corasick — match time, 6 MB corpus, Apple M1 Max (single thread)</text>
<text x="470" y="44" text-anchor="middle" font-size="12" fill="#666">lower is better · all Julia kernels are 0-allocation · counts identical</text>
<text x="200" y="77.71428571428572" text-anchor="end" font-size="12">Rust aho-corasick 1.1</text>
<rect x="210" y="61.49142857142857" width="485.0299592758589" height="24.44571428571429" fill="#d1495b" rx="2"/>
<text x="701.0299592758589" y="77.71428571428572" font-size="12" fill="#333">11.25 ms · 3 alloc</text>
<text x="200" y="117.14285714285714" text-anchor="end" font-size="12">Julia serial (1 stream)</text>
<rect x="210" y="100.92" width="561.4035087719299" height="24.44571428571429" fill="#8a8a8a" rx="2"/>
<text x="777.4035087719299" y="117.14285714285714" font-size="12" fill="#333">13.02 ms · 0 alloc</text>
<text x="200" y="156.57142857142858" text-anchor="end" font-size="12">Julia ILP (2 streams)</text>
<rect x="210" y="140.34857142857143" width="280.60746605325375" height="24.44571428571429" fill="#1f7a4d" rx="2"/>
<text x="496.60746605325375" y="156.57142857142858" font-size="12" fill="#333">6.51 ms · 0 alloc</text>
<text x="200" y="196.0" text-anchor="end" font-size="12">Julia ILP (3 streams)</text>
<rect x="210" y="179.77714285714285" width="188.12050385664543" height="24.44571428571429" fill="#1f7a4d" rx="2"/>
<text x="404.1205038566454" y="196.0" font-size="12" fill="#333">4.36 ms · 0 alloc</text>
<text x="200" y="235.42857142857144" text-anchor="end" font-size="12">Julia ILP (4 streams)</text>
<rect x="210" y="219.2057142857143" width="146.2169584638006" height="24.44571428571429" fill="#1f7a4d" rx="2"/>
<text x="362.2169584638006" y="235.42857142857144" font-size="12" fill="#333">3.39 ms · 0 alloc</text>
<text x="200" y="274.8571428571429" text-anchor="end" font-size="12">Julia ILP (6 streams)</text>
<rect x="210" y="258.63428571428574" width="108.49084956986843" height="24.44571428571429" fill="#1f7a4d" rx="2"/>
<text x="324.49084956986843" y="274.8571428571429" font-size="12" fill="#333">2.52 ms · 0 alloc</text>
<text x="200" y="314.2857142857143" text-anchor="end" font-size="12">Julia ILP (8 streams)</text>
<rect x="210" y="298.0628571428571" width="100.45929395886236" height="24.44571428571429" fill="#1f7a4d" rx="2"/>
<text x="316.45929395886236" y="314.2857142857143" font-size="12" fill="#333">2.33 ms · 0 alloc</text>
<line x1="210.0" y1="54" x2="210.0" y2="330" stroke="#eee"/>
<text x="210.0" y="346" text-anchor="middle" font-size="10" fill="#888">0.0 ms</text>
<line x1="423.3333333333333" y1="54" x2="423.3333333333333" y2="330" stroke="#eee"/>
<text x="423.3333333333333" y="346" text-anchor="middle" font-size="10" fill="#888">4.9 ms</text>
<line x1="636.6666666666666" y1="54" x2="636.6666666666666" y2="330" stroke="#eee"/>
<text x="636.6666666666666" y="346" text-anchor="middle" font-size="10" fill="#888">9.9 ms</text>
<line x1="850.0" y1="54" x2="850.0" y2="330" stroke="#eee"/>
<text x="850.0" y="346" text-anchor="middle" font-size="10" fill="#888">14.8 ms</text>
</svg>
